<svg xmlns="http://www.w3.org/2000/svg" style="display: none;">
  <symbol id="vk" viewBox="0 0 97.75 97.75" >
    <path class="social-btn1"   d="M48.875,0C21.883,0,0,21.882,0,48.875S21.883,97.75,48.875,97.75S97.75,75.868,97.75,48.875S75.867,0,48.875,0z
		 M73.667,54.161c2.278,2.225,4.688,4.319,6.733,6.774c0.906,1.086,1.76,2.209,2.41,3.472c0.928,1.801,0.09,3.776-1.522,3.883
		l-10.013-0.002c-2.586,0.214-4.644-0.829-6.379-2.597c-1.385-1.409-2.67-2.914-4.004-4.371c-0.545-0.598-1.119-1.161-1.803-1.604
		c-1.365-0.888-2.551-0.616-3.333,0.81c-0.797,1.451-0.979,3.059-1.055,4.674c-0.109,2.361-0.821,2.978-3.19,3.089
		c-5.062,0.237-9.865-0.531-14.329-3.083c-3.938-2.251-6.986-5.428-9.642-9.025c-5.172-7.012-9.133-14.708-12.692-22.625
		c-0.801-1.783-0.215-2.737,1.752-2.774c3.268-0.063,6.536-0.055,9.804-0.003c1.33,0.021,2.21,0.782,2.721,2.037
		c1.766,4.345,3.931,8.479,6.644,12.313c0.723,1.021,1.461,2.039,2.512,2.76c1.16,0.796,2.044,0.533,2.591-0.762
		c0.35-0.823,0.501-1.703,0.577-2.585c0.26-3.021,0.291-6.041-0.159-9.05c-0.28-1.883-1.339-3.099-3.216-3.455
		c-0.956-0.181-0.816-0.535-0.351-1.081c0.807-0.944,1.563-1.528,3.074-1.528l11.313-0.002c1.783,0.35,2.183,1.15,2.425,2.946
		l0.01,12.572c-0.021,0.695,0.349,2.755,1.597,3.21c1,0.33,1.66-0.472,2.258-1.105c2.713-2.879,4.646-6.277,6.377-9.794
		c0.764-1.551,1.423-3.156,2.063-4.764c0.476-1.189,1.216-1.774,2.558-1.754l10.894,0.013c0.321,0,0.647,0.003,0.965,0.058
		c1.836,0.314,2.339,1.104,1.771,2.895c-0.894,2.814-2.631,5.158-4.329,7.508c-1.82,2.516-3.761,4.944-5.563,7.471
		C71.48,50.992,71.611,52.155,73.667,54.161z"/>
  </symbol>
  <symbol id="youtube" viewBox="0 0 97.75 97.75" >
    <g>
      <path d="M39.969,59.587c7.334-3.803,14.604-7.571,21.941-11.376c-7.359-3.84-14.627-7.63-21.941-11.447
			C39.969,44.398,39.969,51.954,39.969,59.587z"/>
      <path d="M48.875,0C21.883,0,0,21.882,0,48.875S21.883,97.75,48.875,97.75S97.75,75.868,97.75,48.875S75.867,0,48.875,0z
			 M82.176,65.189c-0.846,3.67-3.848,6.377-7.461,6.78c-8.557,0.957-17.217,0.962-25.842,0.957c-8.625,0.005-17.287,0-25.846-0.957
			c-3.613-0.403-6.613-3.11-7.457-6.78c-1.203-5.228-1.203-10.933-1.203-16.314s0.014-11.088,1.217-16.314
			c0.844-3.67,3.844-6.378,7.457-6.782c8.559-0.956,17.221-0.961,25.846-0.956c8.623-0.005,17.285,0,25.841,0.956
			c3.615,0.404,6.617,3.111,7.461,6.782c1.203,5.227,1.193,10.933,1.193,16.314S83.379,59.962,82.176,65.189z"/>
    </g>
  </symbol>
  <symbol id="fb" viewBox="0 0 97.75 97.75" >
    <g>
      <path d="M48.875,0C21.882,0,0,21.882,0,48.875S21.882,97.75,48.875,97.75S97.75,75.868,97.75,48.875S75.868,0,48.875,0z
		 M67.521,24.89l-6.76,0.003c-5.301,0-6.326,2.519-6.326,6.215v8.15h12.641L67.07,52.023H54.436v32.758H41.251V52.023H30.229V39.258
		h11.022v-9.414c0-10.925,6.675-16.875,16.42-16.875l9.851,0.015V24.89L67.521,24.89z"/>
    </g>
  </symbol>
  <symbol id="pin" viewBox="0 0 97.75 97.75" >
    <g>
      <path d="M48.875,0C21.883,0,0,21.882,0,48.875S21.883,97.75,48.875,97.75S97.75,75.868,97.75,48.875S75.867,0,48.875,0z
		 M54.499,65.109c-4.521,0-8.773-2.444-10.229-5.219c0,0-2.432,9.645-2.943,11.506c-1.813,6.58-7.146,13.162-7.561,13.701
		c-0.289,0.375-0.928,0.258-0.994-0.24c-0.113-0.838-1.475-9.139,0.127-15.909c0.801-3.4,5.383-22.814,5.383-22.814
		s-1.334-2.673-1.334-6.625c0-6.205,3.596-10.837,8.074-10.837c3.807,0,5.645,2.859,5.645,6.286c0,3.828-2.436,9.552-3.693,14.856
		c-1.051,4.441,2.225,8.064,6.605,8.064c7.933,0,13.272-10.188,13.272-22.261c0-9.174-6.176-16.044-17.418-16.044
		c-12.697,0-20.615,9.471-20.615,20.052c0,3.646,1.078,6.221,2.764,8.21c0.773,0.915,0.883,1.283,0.602,2.333
		c-0.203,0.771-0.66,2.625-0.854,3.358c-0.279,1.062-1.137,1.44-2.098,1.049c-5.846-2.387-8.572-8.793-8.572-15.994
		c0-11.893,10.029-26.154,29.922-26.154c15.985,0,26.506,11.566,26.506,23.984C77.089,52.839,67.956,65.109,54.499,65.109z"/>
    </g>
  </symbol>
  <symbol id="twit" viewBox="0 0 97.75 97.75" >
    <g>
      <path d="M48.875,0C21.882,0,0,21.882,0,48.875S21.882,97.75,48.875,97.75S97.75,75.868,97.75,48.875S75.868,0,48.875,0z
		 M78.43,35.841c0.023,0.577,0.035,1.155,0.035,1.736c0,20.878-15.887,42.473-42.473,42.473c-8.127,0-16.04-2.319-22.883-6.708
		c-0.143-0.091-0.202-0.268-0.145-0.427c0.057-0.158,0.218-0.256,0.383-0.237c1.148,0.137,2.322,0.205,3.487,0.205
		c6.323,0,12.309-1.955,17.372-5.664c-6.069-0.512-11.285-4.619-13.161-10.478c-0.039-0.122-0.011-0.255,0.073-0.351
		c0.085-0.096,0.215-0.138,0.339-0.115c1.682,0.319,3.392,0.34,5.04,0.072c-6.259-1.945-10.658-7.808-10.658-14.483l0.002-0.194
		c0.003-0.127,0.072-0.243,0.182-0.306c0.109-0.064,0.245-0.065,0.355-0.003c1.632,0.906,3.438,1.488,5.291,1.711
		c-3.597-2.867-5.709-7.213-5.709-11.862c0-2.682,0.71-5.318,2.054-7.623c0.06-0.103,0.166-0.169,0.284-0.178
		c0.119-0.012,0.234,0.04,0.309,0.132c7.362,9.03,18.191,14.59,29.771,15.305c-0.193-0.972-0.291-1.974-0.291-2.985
		c0-8.361,6.802-15.162,15.162-15.162c4.11,0,8.082,1.689,10.929,4.641c3.209-0.654,6.266-1.834,9.09-3.508
		c0.129-0.077,0.291-0.065,0.41,0.028c0.116,0.094,0.164,0.25,0.118,0.394c-0.957,2.993-2.823,5.604-5.33,7.489
		c2.361-0.411,4.652-1.105,6.831-2.072c0.146-0.067,0.319-0.025,0.424,0.098c0.104,0.124,0.113,0.301,0.023,0.435
		C83.759,31.175,81.299,33.744,78.43,35.841z"/>
    </g>
  </symbol>
  <symbol id="inst" viewBox="0 0 97.75 97.75" >
    <g>
      <g>
        <ellipse cx="48.944" cy="48.719" rx="14.465" ry="14.017"/>
        <path d="M71.333,49.501c0,11.981-10.024,21.692-22.389,21.692s-22.389-9.711-22.389-21.692c0-2.147,0.324-4.221,0.924-6.18h-6.616
			v30.427c0,1.576,1.288,2.863,2.863,2.863h50.159c1.576,0,2.865-1.287,2.865-2.863V43.321h-6.341
			C71.008,45.28,71.333,47.354,71.333,49.501z"/>
        <path d="M65.332,35.11h8.141c1.784,0,3.242-1.458,3.242-3.242v-7.762c0-1.785-1.458-3.243-3.242-3.243h-8.141
			c-1.785,0-3.243,1.458-3.243,3.243v7.762C62.088,33.651,63.547,35.11,65.332,35.11z"/>
        <path d="M48.875,0C21.882,0,0,21.882,0,48.875S21.882,97.75,48.875,97.75S97.75,75.868,97.75,48.875S75.868,0,48.875,0z
			 M75.645,84.891H22.106c-5.087,0-9.246-3.765-9.246-9.244V22.105c0-5.481,4.159-9.245,9.246-9.245h53.539
			c5.086,0,9.246,3.764,9.246,9.245v53.542C84.891,81.126,80.73,84.891,75.645,84.891z"/>
      </g>
    </g>
  </symbol>
</svg>
